<?xml version="1.0" encoding="utf-8"?>
<!-- Generator: Adobe Illustrator 24.0.3, SVG Export Plug-In . SVG Version: 6.00 Build 0)  -->
<svg version="1.1" id="Capa_1" xmlns="http://www.w3.org/2000/svg" xmlns:xlink="http://www.w3.org/1999/xlink" x="0px" y="0px"
	 width="50px" height="5.684px" viewBox="0 0 50 5.684" style="enable-background:new 0 0 50 5.684;" xml:space="preserve">
<style type="text/css">
	.st0{fill:#E20613;}
	.st1{fill:#FFFFFF;}
	.st2{fill:#575756;}
	.st3{fill:#4A4A49;}
</style>
<path class="st0" d="M1343.718,854.861c0.412,0,0.618,0.758,0.618,2.268c0,1.513-1.237,4.711-3.713,9.593
	c5.087-1.512,12.41-3.437,21.968-5.776c4.812-1.098,9.626-2.199,14.439-3.3c5.637-1.238,10.45-1.96,14.439-2.166
	c6.601-0.412,12.479-0.618,17.636-0.618c19.321,0,38.195,3.542,56.622,10.623c1.924,0.758,5.81,2.923,11.655,6.497
	c-0.483,0.826-1.411,1.238-2.786,1.238c-1.375,0-3.369-0.516-5.981-1.546c-1.719-0.688-3.439-1.375-5.157-2.064
	c-12.034-3.574-21.488-5.929-28.363-7.065c-6.876-1.134-16.777-1.975-29.703-2.526c-4.47-0.206-11.551,0.412-21.246,1.856
	c-0.826,0.138-7.908,1.342-21.246,3.61c-4.744,1.101-11.277,2.614-19.596,4.538c0.549,0.688,2.268,1.925,5.157,3.713
	c2.542,1.65,4.125,3.06,4.744,4.228c-3.094-1.444-6.98-3.197-11.655-5.26c0,0.62,0.516,2.114,1.548,4.486
	c1.031,2.372,1.546,3.904,1.546,4.59c0,0.481-0.206,0.722-0.618,0.722c-1.032,0-2.27-1.202-3.714-3.61
	c-1.031-1.718-2.028-3.437-2.991-5.157c-0.687,1.444-2.062,3.919-4.125,7.426c-1.101,0.412-1.79,0.618-2.064,0.618
	c-0.206,0-0.309-0.068-0.309-0.206c0,0.138,0.206-0.516,0.618-1.96c0.826-2.819,1.891-5.26,3.197-7.323
	c-4.606,2.27-13.889,4.538-27.847,6.807c-12.72,2.133-22.999,3.267-30.837,3.404c-9.558,0.275-22.106-0.104-37.644-1.134
	c-1.513-0.068-2.578-0.447-3.198-1.136c-0.618-0.686-1.17-1.374-1.65-2.062c0.757-0.343,2.27-0.516,4.538-0.516
	c2.819,0,8.663,0.414,17.534,1.238c8.182,0.689,13.338,0.964,15.47,0.826c14.37-0.963,25.646-2.234,33.829-3.816
	c7.287-1.375,16.019-3.816,26.197-7.323c-0.412-0.62-1.134-1.238-2.166-1.856c-1.032-0.62-1.788-1.342-2.268-2.166
	c-0.483-0.549-0.964-1.134-1.444-1.754c-0.826-0.961-1.238-1.65-1.238-2.062c0-0.206,0.137-0.31,0.412-0.31
	c1.375,0,3.335,0.964,5.879,2.888c2.13,1.65,3.198,2.372,3.198,2.166c0-0.343-0.483-1.34-1.444-2.991
	c-0.964-1.65-1.444-2.852-1.444-3.61c0-0.274,0.068-0.516,0.206-0.722c2.613,1.376,5.018,3.506,7.219,6.395
	C1340.417,858.093,1342.341,854.861,1343.718,854.861z"/>
<g>
	<rect x="71.121" y="-85.565" class="st1" width="26.789" height="9.98"/>
	<rect x="71.511" y="-85.175" class="st0" width="26.037" height="6.672"/>
	<polygon class="st1" points="78.057,-84.44 76.926,-79.344 79.464,-79.344 79.841,-82.145 80.957,-79.344 82.484,-79.344 
		83.632,-82.161 84.01,-79.344 86.514,-79.344 85.296,-84.44 82.724,-84.44 81.711,-81.784 80.75,-84.44 	"/>
	<polygon class="st1" points="85.909,-84.44 91.345,-84.44 91.345,-82.759 89.93,-82.759 89.93,-79.344 87.324,-79.344 
		87.324,-82.759 85.909,-82.759 	"/>
	<polygon class="st1" points="73.839,-81.254 72.086,-81.254 72.086,-82.521 72.292,-82.521 72.292,-81.487 72.83,-81.487 
		72.83,-82.456 73.035,-82.456 73.035,-81.487 73.633,-81.487 73.633,-82.562 73.839,-82.562 	"/>
	<g>
		<path class="st1" d="M91.308-79.76c0.631,0.196,1.509,0.349,1.509,0.349c0.529,0.086,0.652,0.107,1.5,0.093
			c0.849-0.015,1.623-0.354,1.623-0.354c0.827-0.34,1.008-0.912,1.008-0.912c0.349-0.659-0.072-1.231-0.072-1.231
			c-0.297-0.442-1.088-0.644-1.088-0.644c-0.21-0.116-1.392-0.239-1.392-0.239c-0.377-0.029-0.268-0.246-0.268-0.246
			c0.014-0.261,0.747-0.21,0.797-0.21c0.37,0,1.189,0.384,1.189,0.384l0.717-1.339c-0.681-0.369-1.891-0.426-1.891-0.426
			c-1.031-0.109-2.001,0.267-2.001,0.267c-1.457,0.47-1.385,1.586-1.385,1.586c-0.017,0.327,0.172,0.75,0.559,0.984
			c0.586,0.353,1.465,0.441,1.5,0.441c0.443,0,0.66,0.101,0.66,0.101c0.334,0.101,0.087,0.355,0.087,0.355
			c-0.18,0.101-0.513,0.116-0.513,0.116c-0.855,0.058-1.792-0.543-1.792-0.543L91.308-79.76z"/>
		<path class="st1" d="M72.86-79.624v-0.499c0-0.106-0.011-0.188-0.032-0.248c-0.023-0.06-0.057-0.106-0.106-0.137
			c-0.048-0.031-0.101-0.047-0.158-0.047c-0.083,0-0.151,0.03-0.205,0.091c-0.053,0.06-0.08,0.155-0.08,0.285v0.554H72.86z
			 M73.839-79.392h-1.753v-0.777c0-0.157,0.015-0.275,0.048-0.356c0.031-0.082,0.086-0.147,0.166-0.195
			c0.08-0.049,0.168-0.073,0.265-0.073c0.125,0,0.229,0.041,0.315,0.121c0.085,0.081,0.14,0.205,0.163,0.372
			c0.03-0.061,0.059-0.107,0.087-0.14c0.062-0.067,0.14-0.131,0.234-0.192l0.477-0.304v0.291l-0.365,0.231
			c-0.105,0.068-0.186,0.124-0.242,0.168c-0.056,0.043-0.095,0.083-0.117,0.118c-0.023,0.034-0.038,0.07-0.047,0.105
			c-0.006,0.027-0.008,0.069-0.008,0.129v0.269h0.779V-79.392z"/>
		<path class="st1" d="M73.633-83.207v-0.375c0-0.115-0.011-0.205-0.033-0.271c-0.022-0.066-0.051-0.119-0.09-0.158
			c-0.055-0.055-0.129-0.098-0.222-0.127c-0.093-0.032-0.206-0.047-0.339-0.047c-0.184,0-0.324,0.03-0.422,0.091
			c-0.099,0.06-0.165,0.132-0.199,0.219c-0.023,0.062-0.036,0.162-0.036,0.3v0.368H73.633z M73.839-82.975h-1.753v-0.603
			c0-0.136,0.008-0.241,0.024-0.312c0.024-0.1,0.065-0.186,0.126-0.258c0.078-0.092,0.178-0.161,0.3-0.206
			c0.121-0.047,0.26-0.07,0.416-0.07c0.133,0,0.251,0.016,0.354,0.048c0.103,0.031,0.189,0.07,0.256,0.119
			c0.068,0.048,0.12,0.101,0.159,0.16c0.039,0.057,0.069,0.127,0.088,0.21c0.02,0.08,0.03,0.174,0.03,0.28V-82.975z"/>
		<polygon class="st2" points="72.086,-78.003 73.214,-78.003 73.214,-77.66 72.504,-77.66 72.504,-77.239 73.168,-77.239 
			73.168,-76.899 72.504,-76.899 72.504,-76.156 72.086,-76.156 		"/>
		<path class="st2" d="M73.765-76.693c0.014,0.173,0.184,0.255,0.378,0.255c0.142,0,0.258-0.019,0.37-0.055l0.055,0.282
			c-0.137,0.055-0.304,0.082-0.485,0.082c-0.455,0-0.715-0.263-0.715-0.682c0-0.34,0.211-0.716,0.677-0.716
			c0.433,0,0.597,0.337,0.597,0.669c0,0.072-0.008,0.134-0.014,0.165H73.765z M74.255-76.978c0-0.102-0.043-0.272-0.235-0.272
			c-0.175,0-0.246,0.159-0.258,0.272H74.255z"/>
		<path class="st2" d="M74.892-77.055c0-0.197-0.005-0.326-0.01-0.442h0.359l0.014,0.247h0.011c0.068-0.195,0.233-0.277,0.361-0.277
			c0.039,0,0.058,0,0.089,0.005v0.392c-0.031-0.005-0.066-0.011-0.113-0.011c-0.154,0-0.258,0.083-0.286,0.211
			c-0.005,0.028-0.007,0.061-0.007,0.094v0.68h-0.417V-77.055z"/>
		<path class="st2" d="M75.934-77.055c0-0.197-0.005-0.326-0.011-0.442h0.36l0.014,0.247h0.011c0.068-0.195,0.233-0.277,0.361-0.277
			c0.039,0,0.058,0,0.088,0.005v0.392c-0.03-0.005-0.066-0.011-0.112-0.011c-0.153,0-0.258,0.083-0.285,0.211
			c-0.006,0.028-0.008,0.061-0.008,0.094v0.68h-0.417V-77.055z"/>
		<path class="st2" d="M77.275-76.693c0.013,0.173,0.183,0.255,0.378,0.255c0.143,0,0.258-0.019,0.37-0.055l0.055,0.282
			c-0.137,0.055-0.305,0.082-0.485,0.082c-0.455,0-0.716-0.263-0.716-0.682c0-0.34,0.211-0.716,0.678-0.716
			c0.432,0,0.597,0.337,0.597,0.669c0,0.072-0.008,0.134-0.014,0.165H77.275z M77.765-76.978c0-0.102-0.043-0.272-0.236-0.272
			c-0.175,0-0.246,0.159-0.257,0.272H77.765z"/>
		<path class="st2" d="M78.867-77.88v0.384h0.299v0.307h-0.299v0.485c0,0.162,0.038,0.236,0.165,0.236
			c0.052,0,0.092-0.006,0.123-0.011l0.002,0.315c-0.055,0.022-0.154,0.036-0.271,0.036c-0.135,0-0.247-0.046-0.312-0.114
			c-0.077-0.08-0.115-0.208-0.115-0.398v-0.548H78.28v-0.307h0.179v-0.29L78.867-77.88z"/>
		<path class="st2" d="M79.714-76.693c0.014,0.173,0.184,0.255,0.378,0.255c0.143,0,0.258-0.019,0.371-0.055l0.054,0.282
			c-0.137,0.055-0.304,0.082-0.485,0.082c-0.455,0-0.715-0.263-0.715-0.682c0-0.34,0.21-0.716,0.676-0.716
			c0.433,0,0.598,0.337,0.598,0.669c0,0.072-0.008,0.134-0.014,0.165H79.714z M80.204-76.978c0-0.102-0.044-0.272-0.236-0.272
			c-0.176,0-0.247,0.159-0.258,0.272H80.204z"/>
		<path class="st2" d="M80.84-77.055c0-0.197-0.006-0.326-0.012-0.442h0.36l0.014,0.247h0.011c0.069-0.195,0.233-0.277,0.362-0.277
			c0.038,0,0.058,0,0.088,0.005v0.392c-0.03-0.005-0.066-0.011-0.112-0.011c-0.153,0-0.257,0.083-0.285,0.211
			c-0.005,0.028-0.008,0.061-0.008,0.094v0.68H80.84V-77.055z"/>
		<path class="st2" d="M83.184-76.841c0,0.491-0.348,0.715-0.707,0.715c-0.392,0-0.693-0.258-0.693-0.691
			c0-0.433,0.285-0.71,0.716-0.71C82.91-77.527,83.184-77.244,83.184-76.841 M82.214-76.828c0,0.231,0.096,0.403,0.274,0.403
			c0.162,0,0.265-0.162,0.265-0.403c0-0.2-0.076-0.403-0.265-0.403C82.287-77.231,82.214-77.025,82.214-76.828"/>
		<path class="st2" d="M83.439-76.52c0.077,0.046,0.236,0.102,0.359,0.102c0.126,0,0.179-0.044,0.179-0.114
			c0-0.068-0.041-0.101-0.198-0.153c-0.277-0.093-0.384-0.244-0.381-0.403c0-0.25,0.214-0.439,0.546-0.439
			c0.155,0,0.296,0.036,0.378,0.077l-0.074,0.287c-0.061-0.032-0.176-0.076-0.291-0.076c-0.101,0-0.159,0.041-0.159,0.109
			c0,0.063,0.052,0.096,0.217,0.153c0.255,0.088,0.362,0.217,0.365,0.415c0,0.249-0.198,0.433-0.581,0.433
			c-0.175,0-0.332-0.037-0.433-0.092L83.439-76.52z"/>
		<path class="st2" d="M86.484-78.102v1.546c0,0.15,0.006,0.31,0.011,0.4h-0.37l-0.019-0.197H86.1
			c-0.085,0.15-0.247,0.227-0.419,0.227c-0.318,0-0.572-0.272-0.572-0.688c-0.004-0.453,0.279-0.713,0.6-0.713
			c0.164,0,0.293,0.058,0.353,0.151h0.005v-0.727H86.484z M86.067-76.929c0-0.022-0.002-0.051-0.005-0.074
			c-0.024-0.112-0.115-0.205-0.244-0.205c-0.189,0-0.288,0.17-0.288,0.381c0,0.228,0.113,0.37,0.285,0.37
			c0.121,0,0.217-0.083,0.242-0.201c0.008-0.03,0.01-0.059,0.01-0.095V-76.929z"/>
		<path class="st2" d="M87.14-76.693c0.013,0.173,0.184,0.255,0.378,0.255c0.142,0,0.257-0.019,0.37-0.055l0.055,0.282
			c-0.136,0.055-0.304,0.082-0.485,0.082c-0.455,0-0.715-0.263-0.715-0.682c0-0.34,0.211-0.716,0.677-0.716
			c0.433,0,0.597,0.337,0.597,0.669c0,0.072-0.008,0.134-0.013,0.165H87.14z M87.63-76.978c0-0.102-0.043-0.272-0.235-0.272
			c-0.175,0-0.246,0.159-0.258,0.272H87.63z"/>
		<path class="st2" d="M89.13-77.496l0.18,0.622c0.033,0.112,0.058,0.219,0.076,0.326h0.008c0.022-0.11,0.044-0.211,0.073-0.326
			l0.173-0.622h0.438l-0.498,1.341h-0.417l-0.488-1.341H89.13z"/>
		<path class="st2" d="M90.552-76.693c0.014,0.173,0.184,0.255,0.378,0.255c0.143,0,0.258-0.019,0.37-0.055l0.055,0.282
			c-0.137,0.055-0.304,0.082-0.486,0.082c-0.455,0-0.715-0.263-0.715-0.682c0-0.34,0.211-0.716,0.677-0.716
			c0.433,0,0.597,0.337,0.597,0.669c0,0.072-0.008,0.134-0.013,0.165H90.552z M91.043-76.978c0-0.102-0.043-0.272-0.236-0.272
			c-0.175,0-0.246,0.159-0.258,0.272H91.043z"/>
		<path class="st2" d="M91.678-77.055c0-0.197-0.005-0.326-0.011-0.442h0.359l0.014,0.247h0.011
			c0.069-0.195,0.233-0.277,0.362-0.277c0.039,0,0.058,0,0.088,0.005v0.392c-0.03-0.005-0.066-0.011-0.113-0.011
			c-0.152,0-0.257,0.083-0.284,0.211c-0.005,0.028-0.008,0.061-0.008,0.094v0.68h-0.418V-77.055z"/>
		<path class="st2" d="M93.998-78.102v1.546c0,0.15,0.005,0.31,0.011,0.4h-0.37l-0.019-0.197h-0.006
			c-0.085,0.15-0.246,0.227-0.419,0.227c-0.317,0-0.572-0.272-0.572-0.688c-0.003-0.453,0.279-0.713,0.601-0.713
			c0.164,0,0.293,0.058,0.353,0.151h0.006v-0.727H93.998z M93.581-76.929c0-0.022-0.002-0.051-0.006-0.074
			c-0.024-0.112-0.115-0.205-0.244-0.205c-0.189,0-0.288,0.17-0.288,0.381c0,0.228,0.112,0.37,0.285,0.37
			c0.12,0,0.217-0.083,0.242-0.201c0.008-0.03,0.011-0.059,0.011-0.095V-76.929z"/>
		<path class="st2" d="M95.094-76.156L95.07-76.29h-0.009c-0.088,0.107-0.225,0.165-0.384,0.165c-0.271,0-0.433-0.198-0.433-0.411
			c0-0.348,0.312-0.514,0.787-0.512v-0.019c0-0.072-0.039-0.173-0.244-0.173c-0.137,0-0.282,0.046-0.37,0.1l-0.076-0.268
			c0.093-0.052,0.277-0.118,0.52-0.118c0.447,0,0.59,0.263,0.59,0.578v0.467c0,0.129,0.006,0.252,0.019,0.326H95.094z
			 M95.045-76.789c-0.219-0.002-0.39,0.05-0.39,0.211c0,0.107,0.072,0.16,0.165,0.16c0.104,0,0.189-0.069,0.217-0.155
			c0.005-0.021,0.008-0.045,0.008-0.07V-76.789z"/>
		<path class="st2" d="M97.079-78.102v1.546c0,0.15,0.006,0.31,0.011,0.4h-0.37L96.7-76.353h-0.005
			c-0.085,0.15-0.247,0.227-0.419,0.227c-0.318,0-0.573-0.272-0.573-0.688c-0.002-0.453,0.279-0.713,0.6-0.713
			c0.165,0,0.294,0.058,0.354,0.151h0.005v-0.727H97.079z M96.662-76.929c0-0.022-0.002-0.051-0.005-0.074
			c-0.025-0.112-0.115-0.205-0.244-0.205c-0.189,0-0.288,0.17-0.288,0.381c0,0.228,0.112,0.37,0.285,0.37
			c0.121,0,0.217-0.083,0.242-0.201c0.008-0.03,0.01-0.059,0.01-0.095V-76.929z"/>
	</g>
</g>
<g>
	<g>
		<g>
			<path class="st3" d="M37.307-73.625v-4.38h3.297v0.857h-2.346v0.888h2.065v0.857h-2.065v0.92h2.378v0.857H37.307z"/>
			<path class="st3" d="M44.571-73.625L42.45-76.41v2.784h-0.951v-4.38h0.888l2.052,2.697v-2.697h0.951v4.38H44.571z"/>
			<path class="st3" d="M51.817-74.007c-0.121,0.096-0.253,0.178-0.397,0.247c-0.144,0.069-0.301,0.121-0.472,0.156
				c-0.171,0.035-0.363,0.053-0.576,0.053c-0.321,0-0.619-0.058-0.895-0.175c-0.275-0.117-0.513-0.276-0.713-0.479
				c-0.2-0.202-0.357-0.441-0.469-0.716c-0.113-0.275-0.169-0.569-0.169-0.882v-0.012c0-0.313,0.056-0.606,0.169-0.879
				c0.113-0.273,0.269-0.513,0.469-0.72s0.44-0.369,0.72-0.488c0.28-0.119,0.588-0.178,0.926-0.178c0.204,0,0.391,0.017,0.56,0.05
				c0.169,0.033,0.322,0.079,0.46,0.138c0.138,0.058,0.265,0.129,0.382,0.213c0.117,0.084,0.225,0.175,0.325,0.275l-0.613,0.707
				c-0.171-0.154-0.345-0.275-0.523-0.363c-0.177-0.088-0.376-0.131-0.598-0.131c-0.183,0-0.353,0.035-0.51,0.106
				c-0.156,0.071-0.291,0.169-0.404,0.294c-0.113,0.125-0.2,0.27-0.263,0.435c-0.063,0.165-0.094,0.341-0.094,0.529v0.012
				c0,0.188,0.031,0.365,0.094,0.532c0.063,0.167,0.149,0.313,0.26,0.438c0.111,0.125,0.244,0.224,0.401,0.297
				c0.156,0.073,0.328,0.109,0.516,0.109c0.25,0,0.462-0.046,0.635-0.138c0.173-0.092,0.345-0.217,0.516-0.375l0.613,0.619
				C52.055-74.211,51.938-74.103,51.817-74.007z"/>
			<path class="st3" d="M56.197-73.625l-0.4-0.982h-1.852l-0.401,0.982h-0.982l1.877-4.411h0.889l1.877,4.411H56.197z M54.87-76.879
				l-0.582,1.42h1.164L54.87-76.879z"/>
			<path class="st3" d="M60.928-74.342c-0.079,0.169-0.189,0.311-0.329,0.426c-0.141,0.115-0.309,0.202-0.504,0.263
				c-0.195,0.06-0.412,0.091-0.65,0.091c-0.334,0-0.661-0.057-0.982-0.172c-0.321-0.115-0.613-0.291-0.876-0.529l0.569-0.682
				c0.2,0.163,0.406,0.292,0.616,0.388c0.211,0.096,0.441,0.144,0.691,0.144c0.2,0,0.356-0.036,0.466-0.109
				c0.111-0.073,0.166-0.174,0.166-0.303v-0.012c0-0.063-0.012-0.118-0.035-0.166c-0.023-0.048-0.067-0.093-0.132-0.135
				c-0.065-0.042-0.155-0.083-0.27-0.125c-0.115-0.042-0.264-0.085-0.448-0.131c-0.222-0.054-0.423-0.115-0.602-0.181
				c-0.18-0.067-0.332-0.149-0.458-0.247c-0.126-0.098-0.223-0.22-0.292-0.366c-0.069-0.146-0.104-0.327-0.104-0.544v-0.013
				c0-0.2,0.037-0.381,0.112-0.541c0.075-0.161,0.179-0.299,0.314-0.416c0.135-0.117,0.296-0.206,0.482-0.269
				c0.187-0.063,0.393-0.094,0.618-0.094c0.321,0,0.616,0.048,0.885,0.144c0.269,0.096,0.516,0.234,0.741,0.413l-0.501,0.726
				c-0.196-0.133-0.388-0.239-0.576-0.316c-0.188-0.077-0.375-0.116-0.563-0.116c-0.188,0-0.328,0.037-0.422,0.109
				c-0.094,0.073-0.141,0.164-0.141,0.272v0.013c0,0.071,0.014,0.132,0.041,0.185c0.027,0.052,0.076,0.099,0.148,0.141
				c0.071,0.042,0.168,0.081,0.292,0.119c0.123,0.038,0.279,0.081,0.467,0.131c0.222,0.058,0.419,0.124,0.593,0.197
				c0.173,0.073,0.32,0.161,0.439,0.263c0.119,0.102,0.209,0.222,0.27,0.36c0.061,0.138,0.091,0.303,0.091,0.494v0.012
				C61.046-74.704,61.007-74.511,60.928-74.342z"/>
			<path class="st3" d="M65.144-73.625l-0.4-0.982h-1.852l-0.401,0.982h-0.982l1.877-4.411h0.889l1.877,4.411H65.144z
				 M63.818-76.879l-0.582,1.42H64.4L63.818-76.879z"/>
		</g>
	</g>
	<g>
		<path class="st0" d="M67.752-50.923l-0.075,3.231c1.589,0.037,2.523-0.291,2.552-1.566C70.259-50.533,69.341-50.886,67.752-50.923
			z"/>
		<path class="st0" d="M36.596-51.472l-0.203,2.704l1.537,0.036l-0.115-1.802C37.776-51.13,37.434-51.453,36.596-51.472z"/>
		<path class="st0" d="M78.3-50.678c-0.908-0.021-1.234,0.461-1.253,1.281l-0.126,5.414c-0.019,0.821,0.284,1.317,1.192,1.338
			c0.908,0.021,1.234-0.461,1.253-1.281l0.126-5.414C79.51-50.161,79.208-50.657,78.3-50.678z"/>
		<path class="st0" d="M53.233-31.282c-0.416-0.036-0.624-0.025-0.625,0.03c-0.063,0.387-0.13,1.71-0.201,3.969
			c-0.004,0.236,0.008,0.479,0.038,0.729c0.03,0.25,0.252,0.421,0.666,0.512c0.331,0.076,0.541-0.406,0.631-1.444
			c0.006-0.333,0.021-0.707,0.042-1.122l0.145-2.14l-0.013-0.416C53.877-31.207,53.649-31.246,53.233-31.282z"/>
		<path class="st0" d="M70.968-34.166c-0.208,0.01-0.416,0.013-0.624,0.009c-1.289-0.011-2.813-0.095-4.571-0.254
			c-0.359-0.062-0.739-0.118-1.141-0.168c-0.07,0.013-0.098,0.075-0.087,0.186c-2.912,0.014-6.863-0.027-11.853-0.123l-8.878-0.17
			c-0.122-0.155-0.224-0.233-0.308-0.235l-5.763,0.098c-0.18,0.01-0.322,0.126-0.423,0.345c0.108,0.127,0.273,0.2,0.495,0.218
			c0.18,0.017,0.367,0.028,0.561,0.031l3.867,0.074l1.534,0.238c0.126-0.053,0.182-0.121,0.17-0.205l0.002-0.125
			c0.346,0.021,0.755,0.035,1.226,0.044l5.698,0.067c-0.14,0.053-0.781,0.242-1.924,0.566c-0.781,0.221-1.423,0.451-1.927,0.691
			c-0.658,0.334-1.465,0.818-2.42,1.451c-1.306,0.877-1.963,1.495-1.97,1.855c-0.002,0.097,0.014,0.153,0.049,0.167
			c0.034,0.015,0.065,0.029,0.093,0.043c2.108-2.164,4.802-3.506,8.085-4.026c-1.317,0.696-2.256,1.239-2.818,1.631
			c-0.942,0.676-1.776,1.492-2.501,2.448c-0.399,0.533-0.592,0.869-0.581,1.008c-0.001,0.042,0.082,0.057,0.249,0.047
			c0.18-0.01,0.292-0.043,0.335-0.098c0.399-0.561,1.08-1.38,2.044-2.457c0.424-0.408,1.112-0.873,2.065-1.396
			c1.107-0.603,1.931-0.892,2.471-0.868c-0.322,0.132-0.616,0.307-0.884,0.524c-0.268,0.217-0.542,0.44-0.824,0.671
			c-0.127,0.095-0.545,0.593-1.256,1.494c-0.754,0.956-1.125,1.504-1.113,1.643c-0.001,0.028,0.012,0.077,0.039,0.146l0.083,0.002
			c0.452-0.421,0.983-1,1.593-1.737c0.497-0.614,0.886-1.016,1.167-1.205c0.436-0.31,0.98-0.481,1.632-0.51
			c1.554-0.053,2.869,0.811,3.944,2.592c0.167-0.01,0.411-0.096,0.733-0.256c0.322-0.16,0.484-0.296,0.486-0.407
			c0.001-0.055-0.093-0.213-0.282-0.473c-0.189-0.26-0.284-0.397-0.283-0.411c0-0.014-0.21-0.274-0.63-0.782
			c1.674,0.92,2.906,1.748,3.696,2.484c0.097-0.012,0.306-0.078,0.628-0.196c0.321-0.119,0.482-0.213,0.484-0.282
			c-0.02-0.402-1.353-1.399-3.999-2.989l0.021-0.02c0.854,0.28,1.619,0.53,2.294,0.751c1.612,0.558,2.644,0.959,3.097,1.203
			c0.18,0.017,0.323-0.007,0.428-0.075c0.105-0.067,0.207-0.128,0.305-0.182c-1.113-0.548-2.232-1.103-3.358-1.666
			c-1.36-0.65-2.475-1.066-3.346-1.25c0.083-0.012,1.442,0.021,4.075,0.099l3.619-0.014c0.065,0.237,0.208,0.344,0.431,0.32
			c0.819-0.067,2.179-0.111,4.079-0.13c1.594-0.011,2.392-0.03,2.393-0.058C71.367-34.006,71.231-34.133,70.968-34.166z"/>
		<polygon class="st3" points="11.424,-55.754 11.813,-55.781 14.107,-55.936 13.819,-60.182 13.437,-65.803 15.688,-65.956 
			15.535,-68.206 8.351,-67.718 8.504,-65.468 10.754,-65.621 		"/>
		<path class="st3" d="M16.344-60.137l0.08,1.174c0.14,2.06,1.694,2.928,4.101,2.765c2.406-0.163,3.829-1.233,3.689-3.294
			l-0.031-0.451l-0.404-5.954c-0.14-2.06-1.694-2.928-4.101-2.765c-2.406,0.163-3.829,1.234-3.689,3.294L16.344-60.137z
			 M19.831-66.411c0.9-0.061,1.245,0.403,1.3,1.216l0.352,5.185l0.012,0.181c0.055,0.814-0.224,1.319-1.124,1.38
			c-0.9,0.061-1.245-0.402-1.3-1.216l-0.028-0.406l-0.337-4.961C18.652-65.844,18.931-66.35,19.831-66.411z"/>
		<path class="st3" d="M25.272-56.694l3.029-0.206c2.197-0.149,3.854-1.114,4.699-2.825c0.48-0.971,0.7-2.18,0.602-3.622
			c-0.27-3.981-2.679-5.904-6.124-5.67l-2.337,0.159l0.608,8.954l0.062,0.912l-0.692,0.047L25.272-56.694z M30.833-63.158
			c0.112,1.647-0.306,2.738-0.945,3.357c-0.402,0.39-0.891,0.594-1.393,0.628l-0.045-0.663l-0.472-6.953
			C29.276-66.878,30.651-65.841,30.833-63.158z"/>
		<path class="st3" d="M34.513-60.191c0.012,0.179,0.039,0.345,0.072,0.506c0.348,1.694,1.831,2.408,4.029,2.259
			c1.873-0.127,3.146-0.806,3.554-2.072c0.116-0.36,0.166-0.765,0.135-1.222l-0.435-6.405c-0.14-2.06-1.694-2.928-4.101-2.765
			c-2.406,0.163-3.829,1.234-3.689,3.294L34.513-60.191z M37.92-67.639c0.9-0.061,1.245,0.403,1.3,1.216l0.364,5.366
			c0.055,0.814-0.224,1.319-1.124,1.38c-0.9,0.061-1.245-0.402-1.3-1.216l-0.364-5.366C36.741-67.072,37.02-67.578,37.92-67.639z"/>
		<path class="st3" d="M47.367-61.428c0.045,0.658-0.453,1.004-1.423,1.07l-2.302,0.156l0.05,0.742l0.102,1.508l2.908-0.197
			c1.377-0.094,2.317-0.5,2.866-1.166c0.451-0.548,0.638-1.271,0.579-2.146c-0.217-3.202-4.5-3.781-4.624-5.616
			c-0.039-0.571,0.389-0.93,1.099-0.978l2.631-0.179l-0.153-2.25l-3.133,0.213c-2.181,0.148-3.347,1.427-3.22,3.296
			C42.969-63.721,47.264-62.952,47.367-61.428z"/>
		<path class="st3" d="M60.047-59.207c0.409-0.428,0.637-1.017,0.693-1.749c0.223-2.911-3.556-3.992-3.428-5.66
			c0.04-0.519,0.472-0.786,1.117-0.737l2.392,0.183l0.157-2.046l-2.848-0.218c-1.983-0.152-3.199,0.847-3.329,2.546
			c-0.227,2.959,3.539,4.212,3.433,5.597c-0.046,0.598-0.539,0.845-1.421,0.777l-2.093-0.16l-0.102,1.333l-0.055,0.713l2.644,0.203
			C58.54-58.324,59.473-58.606,60.047-59.207z"/>
		<path class="st3" d="M64.842-57.683c1.662,0.127,2.879-0.292,3.432-1.321c0.175-0.326,0.285-0.711,0.32-1.161l0.446-5.822
			c0.144-1.872-1.142-2.858-3.329-3.025c-2.187-0.168-3.608,0.61-3.752,2.482l-0.446,5.822c-0.047,0.608,0.06,1.121,0.296,1.544
			C62.301-58.283,63.365-57.796,64.842-57.683z M63.988-60.992l0.374-4.878c0.057-0.74,0.374-1.159,1.192-1.096
			c0.818,0.063,1.068,0.525,1.011,1.265l-0.374,4.878c-0.057,0.74-0.374,1.158-1.192,1.095
			C64.181-59.791,63.931-60.253,63.988-60.992z"/>
		<path class="st3" d="M69.654-57.472l2.439,0.187l0.124-1.621l0.563-7.347l0.425,0.033c1.29,0.099,1.58,0.659,1.51,1.571
			l-0.444,5.794l-0.132,1.727l2.439,0.187l0.142-1.854l0.545-7.115l0.456,0.035c1.18,0.09,1.554,0.578,1.479,1.569l-0.426,5.562
			l-0.15,1.96l2.439,0.187l0.16-2.086l0.49-6.395c0.1-1.306-0.482-2.585-2.922-2.772l-8.922-0.684l-0.157,2.046l0.629,0.048
			l-0.573,7.474L69.654-57.472z"/>
		<path class="st3" d="M85.378-56.108c2.146,0.164,3.551-0.583,3.739-2.38c0.004-0.035,0.01-0.067,0.013-0.103l0.446-5.822
			c0.144-1.872-1.142-2.857-3.329-3.025c-2.187-0.168-3.608,0.61-3.752,2.482l-0.446,5.822c-0.013,0.164-0.01,0.32-0.001,0.47
			C82.141-57.097,83.382-56.261,85.378-56.108z M84.523-59.418l0.374-4.878c0.057-0.74,0.374-1.159,1.192-1.096
			c0.818,0.063,1.068,0.525,1.011,1.265l-0.374,4.878c-0.022,0.283-0.082,0.517-0.193,0.697c-0.18,0.291-0.493,0.437-0.999,0.398
			c-0.447-0.034-0.72-0.191-0.87-0.444C84.539-58.808,84.498-59.083,84.523-59.418z"/>
		<path class="st3" d="M95.198-56.082c0.751-0.426,1.149-1.174,1.226-2.189c0.227-2.965-3.622-4.067-3.492-5.766
			c0.041-0.529,0.481-0.801,1.138-0.751l2.436,0.187l0.16-2.084l-2.901-0.222c-2.02-0.155-3.259,0.863-3.391,2.594
			c-0.231,3.014,3.605,4.291,3.497,5.702c-0.005,0.071-0.018,0.135-0.036,0.196c-0.134,0.466-0.617,0.656-1.411,0.596l-2.132-0.163
			l-0.16,2.084l2.693,0.206C93.835-55.616,94.621-55.754,95.198-56.082z"/>
		<path class="st0" d="M6.963-48.024H5.876c-0.059,0-0.144-0.015-0.255-0.044c0.162-0.118,0.322-0.24,0.477-0.366
			c0.259-0.2,0.388-0.344,0.388-0.432c0-0.162-0.103-0.299-0.31-0.41c-0.133-0.074-0.215-0.111-0.244-0.111
			c-0.118,0-0.41,0.188-0.876,0.565l-0.056-0.055c0-0.052-0.009-0.186-0.028-0.405c-0.019-0.218-0.028-0.334-0.028-0.349
			c0-0.266-0.089-0.399-0.266-0.399c-0.377,0-0.565,0.155-0.565,0.466c0,0.03,0.015,0.177,0.044,0.444
			c0.03,0.266,0.044,0.41,0.044,0.432c0,0.059-0.022,0.103-0.066,0.133c-0.392-0.369-0.684-0.65-0.876-0.842
			c-0.111-0.089-0.207-0.133-0.288-0.133c-0.074,0-0.148,0.068-0.222,0.204c-0.074,0.136-0.111,0.244-0.111,0.325
			c0,0.162,0.126,0.341,0.377,0.539c0.34,0.264,0.521,0.411,0.543,0.44H2.307c-0.089,0-0.181,0.033-0.277,0.1
			c-0.096,0.067-0.148,0.137-0.155,0.211v0.288c0,0.118,0.078,0.196,0.233,0.233c0.044,0.007,0.159,0.015,0.344,0.022
			c0.48,0.007,0.78,0.007,0.898,0c-0.044,0.095-0.166,0.242-0.366,0.44c-0.148,0.147-0.222,0.286-0.222,0.418
			c0,0.088,0.033,0.194,0.1,0.319c0.089,0.161,0.192,0.242,0.31,0.242c0.126,0,0.325-0.129,0.599-0.388
			c0.17-0.162,0.34-0.329,0.51-0.499l0.044,0.055c0.029,0.244,0.048,0.447,0.055,0.61c0.022,0.229,0.044,0.458,0.067,0.687
			c0.03,0.14,0.177,0.211,0.443,0.211c0.288,0,0.425-0.081,0.41-0.244l-0.089-1.02c-0.007-0.059,0.004-0.111,0.033-0.155
			l0.044-0.022c0.768,0.665,1.226,0.998,1.374,0.998c0.067,0,0.151-0.06,0.255-0.182c0.103-0.121,0.155-0.222,0.155-0.303
			c0-0.066-0.188-0.264-0.565-0.595c-0.236-0.198-0.473-0.396-0.709-0.594c0.214-0.007,0.403-0.011,0.565-0.011h0.421
			c0.229,0,0.369-0.011,0.421-0.033c0.089-0.044,0.133-0.096,0.133-0.155c0-0.125-0.03-0.255-0.089-0.388
			C7.177-47.943,7.081-48.024,6.963-48.024z"/>
		<path class="st0" d="M101.786-45.965c-0.074-0.162-0.17-0.244-0.288-0.244h-1.086c-0.059,0-0.144-0.015-0.255-0.044
			c0.162-0.118,0.322-0.24,0.477-0.366c0.259-0.2,0.388-0.344,0.388-0.432c0-0.162-0.103-0.299-0.31-0.41
			c-0.133-0.074-0.215-0.111-0.244-0.111c-0.118,0-0.41,0.188-0.876,0.565l-0.056-0.055c0-0.052-0.009-0.187-0.028-0.405
			c-0.019-0.218-0.028-0.334-0.028-0.349c0-0.266-0.089-0.399-0.266-0.399c-0.377,0-0.565,0.155-0.565,0.466
			c0,0.03,0.015,0.177,0.044,0.444c0.03,0.266,0.044,0.41,0.044,0.432c0,0.059-0.022,0.103-0.066,0.133
			c-0.392-0.369-0.684-0.65-0.876-0.842c-0.111-0.089-0.207-0.133-0.288-0.133c-0.074,0-0.148,0.068-0.222,0.204
			c-0.074,0.136-0.111,0.244-0.111,0.325c0,0.162,0.126,0.341,0.377,0.539c0.34,0.264,0.521,0.411,0.543,0.44h-1.253
			c-0.089,0-0.181,0.033-0.277,0.1c-0.096,0.067-0.148,0.137-0.155,0.211v0.288c0,0.118,0.078,0.196,0.233,0.233
			c0.044,0.007,0.159,0.015,0.344,0.022c0.48,0.007,0.78,0.007,0.898,0c-0.044,0.095-0.166,0.242-0.366,0.44
			c-0.148,0.147-0.222,0.286-0.222,0.418c0,0.088,0.033,0.194,0.1,0.319c0.089,0.161,0.192,0.242,0.31,0.242
			c0.126,0,0.325-0.129,0.599-0.388c0.17-0.162,0.34-0.329,0.51-0.499l0.044,0.055c0.029,0.244,0.048,0.447,0.055,0.61
			c0.022,0.229,0.044,0.458,0.067,0.687c0.03,0.14,0.177,0.211,0.443,0.211c0.288,0,0.425-0.081,0.41-0.244l-0.089-1.02
			c-0.007-0.059,0.004-0.111,0.033-0.155l0.044-0.022c0.768,0.665,1.226,0.998,1.374,0.998c0.067,0,0.151-0.06,0.255-0.182
			c0.103-0.121,0.155-0.222,0.155-0.303c0-0.066-0.188-0.264-0.565-0.595c-0.236-0.198-0.473-0.396-0.709-0.594
			c0.214-0.007,0.403-0.011,0.565-0.011h0.421c0.229,0,0.369-0.011,0.421-0.033c0.089-0.044,0.133-0.096,0.133-0.155
			C101.875-45.703,101.845-45.832,101.786-45.965z"/>
		<path class="st0" d="M95.389-54.684c-0.004-0.072-0.008-0.144-0.013-0.22c0-0.008-0.001-0.016-0.001-0.025
			c-0.578,0.248-1.254,0.379-2.031,0.379c-0.196,0-0.397-0.008-0.605-0.024l-3.812-0.293l0.082-1.065
			c-0.746,0.627-1.798,0.966-3.096,0.966c-0.201,0-0.408-0.008-0.621-0.025c-1.507-0.115-2.491-0.56-3.141-1.114l-0.055,0.711
			l-4.484-0.345v0l-4.485-0.344l0,0l-4.677-0.358l0.085-1.109c-0.63,0.563-1.606,1.01-3.123,1.01c-0.208,0-0.425-0.008-0.654-0.026
			c-2.281-0.175-3.351-1.117-3.852-1.926c-0.017,0.018-0.028,0.04-0.045,0.058c-0.728,0.764-1.782,1.149-3.138,1.149
			c-0.194,0-0.394-0.008-0.6-0.024l-3.762-0.289l0.086-1.122l-0.306-0.023l0.057-0.742c-0.737-0.018-1.471-0.036-2.207-0.055
			c-0.137,0.34-0.321,0.653-0.553,0.935c-0.767,0.931-1.997,1.46-3.657,1.572l-4.028,0.273l-0.089-1.314
			c-0.623,0.807-1.788,1.615-3.973,1.764c-0.218,0.015-0.428,0.022-0.628,0.022c-2.657,0-3.789-1.242-4.274-2.276
			c-0.037-0.037-0.073-0.075-0.108-0.114c0,0,0,0,0,0c-1.082,1.706-2.932,2.734-5.301,2.895l-4.15,0.282l-0.061-0.894
			c-0.813,0.749-2.023,1.209-3.567,1.314h0c-0.206,0.014-0.407,0.021-0.603,0.021c-1.722,0-3.042-0.536-3.84-1.516
			c-0.191-0.063-0.371-0.137-0.537-0.225c-0.008-0.004-0.016-0.009-0.024-0.013c-0.163-0.088-0.315-0.185-0.453-0.298l0.16,2.217
			l-4.923,0.334l-0.097-1.422l-0.932,0.063c0.037,0.436,0.064,0.775,0.082,1.016c0.009,0.12,0.016,0.216,0.02,0.287
			c0.004,0.071,0.006,0.117,0.006,0.138c-0.001,0.03,0.575,13.38,0.613,13.901c0.037,0.521,0.075,1.042,0.112,1.563
			c0.053,0.29,0.225,0.515,0.502,0.679c0.33,0.196,0.813,0.306,1.459,0.324c0.009,0,0.017,0.001,0.026,0.002
			c0.056,0.001,0.351,0.009,0.858,0.021c0.141,0.004,0.298,0.007,0.471,0.012c0.448,0.011,80.728,1.997,81.019,2.004
			c1.308,0.032,1.937-0.321,1.889-1.061C96.408-37.031,95.042-54.51,95.389-54.684z M32.131-51.034l-0.219,9.413l-2.707-0.063
			l0.194-8.347c0.026-1.1-0.417-1.617-1.727-1.647l-0.506-0.012l-0.231,9.954L24.228-41.8l0.194-8.347
			c0.024-1.013-0.329-1.615-1.761-1.648l-0.472-0.011l-0.231,9.954l-2.707-0.063l0.231-9.954l-0.698-0.016l0.053-2.27l9.902,0.23
			C31.445-53.863,32.164-52.484,32.131-51.034z M38.46-41.47l-0.356-4.988l-1.886-0.044l-0.378,4.971l-2.794-0.065l1.017-9.936
			l-0.611-0.014l0.053-2.27l3.3,0.077c2.427,0.056,3.483,1.252,3.649,3.107l0.886,9.229L38.46-41.47z M53.006-41.132l-2.478-0.058
			L50.072-41.2l-4.383-0.102c-2.2-0.051-3.364-1.109-3.324-2.82l0.052-2.235l-0.698-0.016l0.053-2.27l0.698,0.016l0.116-4.977
			l6.636,0.154l-0.053,2.27l-3.929-0.091l-0.063,2.707l3.178,0.074l-0.053,2.27l-3.178-0.074l-0.026,1.135
			c-0.025,1.065,0.435,1.583,1.727,1.613l3.3,0.077l0.456,0.011l1.867,0.043c0.978,0.023,1.509-0.28,1.524-0.943
			c0.036-1.537-4.201-2.701-4.124-5.984c0.044-1.886,1.329-3.062,3.53-3.011l3.161,0.073l-0.053,2.27l-2.654-0.062
			c-0.716-0.017-1.178,0.304-1.191,0.881c-0.043,1.851,4.198,2.823,4.123,6.054C56.717-42.181,55.538-41.073,53.006-41.132z
			 M62.247-50.876l-0.231,9.954l-2.707-0.063l0.231-9.954l-2.27-0.053l0.053-2.27l7.247,0.168l-0.053,2.27L62.247-50.876z
			 M71.152-46.109l1.429,5.432L69.7-40.744l-0.957-4.705c0,0-0.42,0.043-1.119,0.026l-0.107,4.628l-2.707-0.063l0.107-4.628
			l-0.698-0.016l0.053-2.27l0.698,0.016l0.124-5.326l2.707,0.063c2.986,0.069,5.288,1.031,5.223,3.825
			C72.969-46.836,71.152-46.109,71.152-46.109z M82.21-49.801l-0.15,6.461c-0.048,2.078-1.573,3.021-4,2.965
			c-2.428-0.056-3.907-1.069-3.858-3.147l0.15-6.461c0.048-2.078,1.573-3.021,4-2.965C80.78-52.892,82.259-51.879,82.21-49.801z
			 M86.586-40.352l-2.934-0.068l0.053-2.27l2.323,0.054c0.978,0.023,1.509-0.28,1.524-0.943c0.036-1.537-4.201-2.701-4.124-5.984
			c0.044-1.886,1.329-3.062,3.53-3.011l3.161,0.073l-0.053,2.27l-2.654-0.062c-0.716-0.017-1.178,0.305-1.191,0.881
			c-0.043,1.851,4.198,2.823,4.123,6.054C90.297-41.401,89.118-40.293,86.586-40.352z"/>
	</g>
</g>
<polygon class="st0" points="1.875,-18.882 16.875,-18.882 9.375,-9.882 "/>
<path class="st0" d="M22.6,0c0.084,0,0.127,0.155,0.127,0.465c0,0.31-0.253,0.966-0.761,1.966c1.043-0.31,2.544-0.705,4.503-1.184
	c0.986-0.225,1.973-0.451,2.96-0.677c1.155-0.254,2.142-0.402,2.96-0.444C33.742,0.042,34.947,0,36.004,0
	c3.96,0,7.829,0.726,11.607,2.178C48.005,2.333,48.802,2.777,50,3.509c-0.099,0.169-0.289,0.254-0.571,0.254
	s-0.691-0.106-1.226-0.317c-0.352-0.141-0.705-0.282-1.057-0.423c-2.467-0.733-4.405-1.215-5.814-1.448
	c-1.409-0.233-3.439-0.405-6.089-0.518c-0.916-0.042-2.368,0.084-4.355,0.381c-0.169,0.028-1.621,0.275-4.355,0.74
	c-0.973,0.226-2.312,0.536-4.017,0.93c0.113,0.141,0.465,0.395,1.057,0.761c0.521,0.338,0.846,0.627,0.973,0.867
	c-0.634-0.296-1.431-0.655-2.389-1.078c0,0.127,0.106,0.433,0.317,0.92c0.211,0.486,0.317,0.8,0.317,0.941
	c0,0.099-0.042,0.148-0.127,0.148c-0.212,0-0.465-0.246-0.761-0.74c-0.211-0.352-0.416-0.705-0.613-1.057
	c-0.141,0.296-0.423,0.803-0.846,1.522c-0.226,0.084-0.367,0.127-0.423,0.127c-0.042,0-0.063-0.014-0.063-0.042
	c0,0.028,0.042-0.106,0.127-0.402c0.169-0.578,0.388-1.078,0.655-1.501c-0.944,0.465-2.847,0.93-5.708,1.395
	c-2.607,0.437-4.714,0.67-6.321,0.698C6.751,5.722,4.179,5.645,0.994,5.433C0.684,5.42,0.465,5.342,0.338,5.201
	C0.212,5.06,0.098,4.919,0,4.778c0.155-0.07,0.465-0.106,0.93-0.106c0.578,0,1.776,0.085,3.594,0.254
	c1.677,0.141,2.734,0.198,3.171,0.169c2.946-0.197,5.257-0.458,6.935-0.782c1.494-0.282,3.284-0.782,5.37-1.501
	c-0.084-0.127-0.233-0.254-0.444-0.381c-0.212-0.127-0.367-0.275-0.465-0.444c-0.099-0.113-0.198-0.233-0.296-0.36
	c-0.169-0.197-0.254-0.338-0.254-0.423c0-0.042,0.028-0.064,0.084-0.064c0.282,0,0.684,0.198,1.205,0.592
	c0.437,0.338,0.656,0.486,0.656,0.444c0-0.07-0.099-0.275-0.296-0.613c-0.198-0.338-0.296-0.585-0.296-0.74
	c0-0.056,0.014-0.106,0.042-0.148c0.536,0.282,1.029,0.719,1.48,1.311C21.924,0.663,22.318,0,22.6,0z"/>
</svg>
