<?xml version="1.0" encoding="utf-8"?>
<!-- Generator: Adobe Illustrator 24.0.3, SVG Export Plug-In . SVG Version: 6.00 Build 0)  -->
<svg version="1.1" id="Capa_1" xmlns="http://www.w3.org/2000/svg" xmlns:xlink="http://www.w3.org/1999/xlink" x="0px" y="0px"
	 width="100px" height="59.53px" viewBox="0 0 100 59.53" style="enable-background:new 0 0 100 59.53;" xml:space="preserve">
<style type="text/css">
	.st0{fill:#FFFFFF;}
	.st1{fill:#E20613;}
	.st2{fill:#575756;}
	.st3{fill:#4A4A49;}
</style>
<g>
	<rect x="69.246" class="st0" width="26.789" height="9.98"/>
	<rect x="69.636" y="0.39" class="st1" width="26.037" height="6.672"/>
	<polygon class="st0" points="76.182,1.125 75.051,6.221 77.589,6.221 77.966,3.42 79.082,6.221 80.609,6.221 81.757,3.403 
		82.135,6.221 84.639,6.221 83.421,1.125 80.849,1.125 79.836,3.78 78.875,1.125 	"/>
	<polygon class="st0" points="84.034,1.125 89.47,1.125 89.47,2.806 88.055,2.806 88.055,6.221 85.449,6.221 85.449,2.806 
		84.034,2.806 	"/>
	<polygon class="st0" points="71.964,4.311 70.211,4.311 70.211,3.044 70.417,3.044 70.417,4.078 70.955,4.078 70.955,3.109 
		71.16,3.109 71.16,4.078 71.758,4.078 71.758,3.002 71.964,3.002 	"/>
	<g>
		<path class="st0" d="M89.433,5.805C90.065,6,90.942,6.154,90.942,6.154c0.529,0.086,0.652,0.107,1.5,0.093
			c0.849-0.015,1.623-0.354,1.623-0.354c0.827-0.34,1.008-0.912,1.008-0.912c0.349-0.659-0.072-1.231-0.072-1.231
			c-0.297-0.442-1.088-0.644-1.088-0.644c-0.21-0.116-1.392-0.239-1.392-0.239c-0.377-0.029-0.268-0.246-0.268-0.246
			c0.014-0.261,0.747-0.21,0.797-0.21c0.37,0,1.189,0.384,1.189,0.384l0.717-1.339c-0.681-0.369-1.891-0.426-1.891-0.426
			c-1.031-0.109-2.001,0.267-2.001,0.267c-1.457,0.47-1.385,1.586-1.385,1.586c-0.017,0.327,0.172,0.75,0.559,0.984
			c0.586,0.353,1.465,0.441,1.5,0.441c0.443,0,0.66,0.101,0.66,0.101c0.334,0.101,0.087,0.355,0.087,0.355
			c-0.18,0.101-0.513,0.116-0.513,0.116c-0.855,0.058-1.791-0.543-1.791-0.543L89.433,5.805z"/>
		<path class="st0" d="M70.985,5.94V5.442c0-0.106-0.011-0.188-0.032-0.248c-0.023-0.06-0.057-0.106-0.106-0.137
			c-0.048-0.031-0.101-0.047-0.158-0.047c-0.083,0-0.151,0.03-0.205,0.091c-0.053,0.06-0.08,0.155-0.08,0.285V5.94H70.985z
			 M71.964,6.172h-1.753V5.395c0-0.157,0.015-0.275,0.048-0.356c0.031-0.082,0.086-0.147,0.166-0.195
			c0.08-0.049,0.168-0.073,0.265-0.073c0.125,0,0.229,0.041,0.315,0.121c0.085,0.081,0.14,0.205,0.163,0.372
			c0.03-0.061,0.059-0.107,0.087-0.14c0.062-0.067,0.14-0.131,0.234-0.192l0.477-0.304V4.92l-0.365,0.231
			c-0.105,0.068-0.186,0.124-0.242,0.168c-0.056,0.043-0.095,0.083-0.117,0.118c-0.023,0.034-0.038,0.07-0.047,0.105
			c-0.006,0.027-0.008,0.069-0.008,0.129V5.94h0.779V6.172z"/>
		<path class="st0" d="M71.758,2.358V1.984c0-0.115-0.011-0.205-0.033-0.271c-0.022-0.066-0.051-0.119-0.09-0.158
			c-0.055-0.055-0.129-0.098-0.222-0.127c-0.093-0.032-0.206-0.047-0.339-0.047c-0.184,0-0.324,0.03-0.422,0.091
			c-0.099,0.06-0.165,0.132-0.199,0.219c-0.023,0.062-0.036,0.162-0.036,0.3v0.368H71.758z M71.964,2.59h-1.753V1.986
			c0-0.136,0.008-0.241,0.024-0.312c0.024-0.1,0.065-0.186,0.126-0.258c0.078-0.092,0.178-0.161,0.3-0.206
			c0.121-0.047,0.26-0.07,0.416-0.07c0.133,0,0.251,0.016,0.354,0.048c0.103,0.031,0.189,0.07,0.256,0.119
			c0.068,0.048,0.12,0.101,0.159,0.16c0.039,0.057,0.069,0.127,0.088,0.21c0.02,0.08,0.03,0.174,0.03,0.28V2.59z"/>
		<polygon class="st2" points="70.211,7.561 71.339,7.561 71.339,7.905 70.629,7.905 70.629,8.326 71.293,8.326 71.293,8.666 
			70.629,8.666 70.629,9.409 70.211,9.409 		"/>
		<path class="st2" d="M71.891,8.872c0.014,0.173,0.184,0.255,0.378,0.255c0.142,0,0.258-0.019,0.37-0.055l0.055,0.282
			c-0.137,0.055-0.304,0.082-0.485,0.082c-0.455,0-0.715-0.263-0.715-0.682c0-0.34,0.211-0.716,0.677-0.716
			c0.433,0,0.597,0.337,0.597,0.669c0,0.072-0.008,0.134-0.014,0.165H71.891z M72.38,8.587c0-0.102-0.043-0.272-0.235-0.272
			c-0.175,0-0.246,0.159-0.258,0.272H72.38z"/>
		<path class="st2" d="M73.017,8.51c0-0.197-0.005-0.326-0.01-0.442h0.359l0.014,0.247h0.011c0.068-0.195,0.233-0.277,0.361-0.277
			c0.039,0,0.058,0,0.089,0.005v0.392c-0.031-0.005-0.066-0.011-0.113-0.011c-0.154,0-0.258,0.083-0.286,0.211
			c-0.005,0.028-0.007,0.061-0.007,0.094v0.68h-0.417V8.51z"/>
		<path class="st2" d="M74.059,8.51c0-0.197-0.005-0.326-0.011-0.442h0.36l0.014,0.247h0.011c0.068-0.195,0.233-0.277,0.362-0.277
			c0.039,0,0.058,0,0.088,0.005v0.392c-0.03-0.005-0.066-0.011-0.112-0.011c-0.153,0-0.258,0.083-0.285,0.211
			c-0.006,0.028-0.008,0.061-0.008,0.094v0.68h-0.417V8.51z"/>
		<path class="st2" d="M75.4,8.872c0.013,0.173,0.183,0.255,0.378,0.255c0.143,0,0.258-0.019,0.37-0.055l0.055,0.282
			c-0.137,0.055-0.305,0.082-0.485,0.082c-0.455,0-0.716-0.263-0.716-0.682c0-0.34,0.211-0.716,0.678-0.716
			c0.432,0,0.597,0.337,0.597,0.669c0,0.072-0.008,0.134-0.014,0.165H75.4z M75.89,8.587c0-0.102-0.043-0.272-0.236-0.272
			c-0.175,0-0.246,0.159-0.257,0.272H75.89z"/>
		<path class="st2" d="M76.992,7.685v0.384h0.299v0.307h-0.299V8.86c0,0.162,0.038,0.236,0.165,0.236
			c0.052,0,0.092-0.006,0.123-0.011L77.282,9.4c-0.055,0.022-0.154,0.036-0.271,0.036c-0.135,0-0.247-0.046-0.312-0.114
			c-0.077-0.08-0.115-0.208-0.115-0.398V8.376h-0.179V8.069h0.179v-0.29L76.992,7.685z"/>
		<path class="st2" d="M77.839,8.872c0.014,0.173,0.184,0.255,0.378,0.255c0.143,0,0.258-0.019,0.371-0.055l0.054,0.282
			c-0.137,0.055-0.304,0.082-0.485,0.082c-0.455,0-0.715-0.263-0.715-0.682c0-0.34,0.21-0.716,0.676-0.716
			c0.433,0,0.598,0.337,0.598,0.669c0,0.072-0.008,0.134-0.014,0.165H77.839z M78.329,8.587c0-0.102-0.044-0.272-0.236-0.272
			c-0.176,0-0.247,0.159-0.258,0.272H78.329z"/>
		<path class="st2" d="M78.966,8.51c0-0.197-0.006-0.326-0.012-0.442h0.36l0.014,0.247h0.011c0.069-0.195,0.233-0.277,0.362-0.277
			c0.038,0,0.058,0,0.088,0.005v0.392c-0.03-0.005-0.066-0.011-0.112-0.011c-0.153,0-0.257,0.083-0.285,0.211
			c-0.005,0.028-0.008,0.061-0.008,0.094v0.68h-0.417V8.51z"/>
		<path class="st2" d="M81.309,8.724c0,0.491-0.348,0.715-0.707,0.715c-0.392,0-0.693-0.258-0.693-0.691
			c0-0.433,0.285-0.71,0.716-0.71C81.035,8.038,81.309,8.321,81.309,8.724 M80.339,8.737c0,0.231,0.096,0.403,0.274,0.403
			c0.162,0,0.265-0.162,0.265-0.403c0-0.2-0.076-0.403-0.265-0.403C80.412,8.334,80.339,8.54,80.339,8.737"/>
		<path class="st2" d="M81.564,9.045c0.077,0.046,0.236,0.102,0.359,0.102c0.126,0,0.179-0.044,0.179-0.114
			c0-0.068-0.041-0.101-0.198-0.153c-0.277-0.093-0.384-0.244-0.381-0.403c0-0.25,0.214-0.439,0.546-0.439
			c0.155,0,0.296,0.036,0.378,0.077l-0.074,0.287c-0.061-0.032-0.176-0.076-0.291-0.076c-0.101,0-0.159,0.041-0.159,0.109
			c0,0.063,0.052,0.096,0.217,0.153c0.255,0.088,0.362,0.217,0.365,0.415c0,0.249-0.198,0.433-0.581,0.433
			c-0.175,0-0.332-0.037-0.433-0.092L81.564,9.045z"/>
		<path class="st2" d="M84.609,7.463v1.546c0,0.15,0.006,0.31,0.011,0.4h-0.37l-0.019-0.197h-0.006
			c-0.085,0.15-0.247,0.227-0.419,0.227c-0.318,0-0.572-0.272-0.572-0.688c-0.004-0.453,0.279-0.713,0.6-0.713
			c0.164,0,0.293,0.058,0.353,0.151h0.005V7.463H84.609z M84.192,8.636c0-0.022-0.002-0.051-0.005-0.074
			c-0.024-0.112-0.115-0.205-0.244-0.205c-0.189,0-0.288,0.17-0.288,0.381c0,0.228,0.113,0.37,0.285,0.37
			c0.121,0,0.217-0.083,0.242-0.201c0.008-0.03,0.01-0.059,0.01-0.095V8.636z"/>
		<path class="st2" d="M85.265,8.872c0.013,0.173,0.184,0.255,0.378,0.255c0.142,0,0.257-0.019,0.37-0.055l0.055,0.282
			c-0.136,0.055-0.304,0.082-0.485,0.082c-0.455,0-0.715-0.263-0.715-0.682c0-0.34,0.211-0.716,0.677-0.716
			c0.433,0,0.597,0.337,0.597,0.669c0,0.072-0.008,0.134-0.013,0.165H85.265z M85.755,8.587c0-0.102-0.043-0.272-0.235-0.272
			c-0.175,0-0.246,0.159-0.258,0.272H85.755z"/>
		<path class="st2" d="M87.255,8.069l0.18,0.622c0.033,0.112,0.058,0.219,0.076,0.326h0.008c0.022-0.11,0.044-0.211,0.073-0.326
			l0.173-0.622h0.438l-0.498,1.341H87.29l-0.488-1.341H87.255z"/>
		<path class="st2" d="M88.677,8.872c0.014,0.173,0.184,0.255,0.378,0.255c0.143,0,0.258-0.019,0.37-0.055l0.055,0.282
			c-0.137,0.055-0.304,0.082-0.486,0.082c-0.455,0-0.715-0.263-0.715-0.682c0-0.34,0.211-0.716,0.677-0.716
			c0.433,0,0.597,0.337,0.597,0.669c0,0.072-0.008,0.134-0.013,0.165H88.677z M89.168,8.587c0-0.102-0.043-0.272-0.236-0.272
			c-0.175,0-0.246,0.159-0.258,0.272H89.168z"/>
		<path class="st2" d="M89.803,8.51c0-0.197-0.005-0.326-0.011-0.442h0.359l0.014,0.247h0.011c0.069-0.195,0.233-0.277,0.362-0.277
			c0.039,0,0.058,0,0.088,0.005v0.392c-0.03-0.005-0.066-0.011-0.113-0.011c-0.152,0-0.257,0.083-0.284,0.211
			c-0.005,0.028-0.008,0.061-0.008,0.094v0.68h-0.418V8.51z"/>
		<path class="st2" d="M92.123,7.463v1.546c0,0.15,0.005,0.31,0.011,0.4h-0.37l-0.019-0.197h-0.006
			c-0.085,0.15-0.246,0.227-0.419,0.227c-0.317,0-0.572-0.272-0.572-0.688c-0.003-0.453,0.279-0.713,0.601-0.713
			c0.164,0,0.293,0.058,0.353,0.151h0.006V7.463H92.123z M91.706,8.636c0-0.022-0.002-0.051-0.006-0.074
			c-0.024-0.112-0.115-0.205-0.244-0.205c-0.189,0-0.288,0.17-0.288,0.381c0,0.228,0.112,0.37,0.285,0.37
			c0.12,0,0.217-0.083,0.242-0.201c0.008-0.03,0.011-0.059,0.011-0.095V8.636z"/>
		<path class="st2" d="M93.219,9.409l-0.024-0.134h-0.009c-0.088,0.107-0.225,0.165-0.384,0.165c-0.27,0-0.433-0.198-0.433-0.411
			c0-0.348,0.312-0.514,0.787-0.512V8.496c0-0.072-0.039-0.173-0.244-0.173c-0.137,0-0.282,0.046-0.37,0.1l-0.076-0.268
			c0.093-0.052,0.277-0.118,0.52-0.118c0.447,0,0.59,0.263,0.59,0.578v0.467c0,0.129,0.006,0.252,0.019,0.326H93.219z M93.17,8.776
			c-0.219-0.002-0.39,0.05-0.39,0.211c0,0.107,0.072,0.16,0.165,0.16c0.104,0,0.189-0.069,0.217-0.155
			c0.005-0.021,0.008-0.045,0.008-0.07V8.776z"/>
		<path class="st2" d="M95.204,7.463v1.546c0,0.15,0.006,0.31,0.011,0.4h-0.37l-0.019-0.197H94.82
			c-0.085,0.15-0.247,0.227-0.419,0.227c-0.318,0-0.573-0.272-0.573-0.688c-0.002-0.453,0.279-0.713,0.6-0.713
			c0.165,0,0.294,0.058,0.354,0.151h0.005V7.463H95.204z M94.787,8.636c0-0.022-0.002-0.051-0.005-0.074
			c-0.025-0.112-0.115-0.205-0.244-0.205c-0.189,0-0.288,0.17-0.288,0.381c0,0.228,0.112,0.37,0.285,0.37
			c0.121,0,0.217-0.083,0.242-0.201c0.008-0.03,0.01-0.059,0.01-0.095V8.636z"/>
	</g>
</g>
<g>
	<g>
		<g>
			<path class="st3" d="M35.432,11.94V7.56h3.297v0.857h-2.346v0.888h2.065v0.857h-2.065v0.92h2.378v0.857H35.432z"/>
			<path class="st3" d="M42.696,11.94l-2.121-2.784v2.784h-0.951V7.56h0.888l2.052,2.697V7.56h0.951v4.38H42.696z"/>
			<path class="st3" d="M49.942,11.558c-0.121,0.096-0.253,0.178-0.397,0.247c-0.144,0.069-0.301,0.121-0.472,0.156
				c-0.171,0.035-0.363,0.053-0.576,0.053c-0.321,0-0.619-0.058-0.895-0.175c-0.275-0.117-0.513-0.276-0.713-0.479
				c-0.2-0.202-0.357-0.441-0.469-0.716c-0.113-0.275-0.169-0.569-0.169-0.882V9.75c0-0.313,0.056-0.606,0.169-0.879
				c0.113-0.273,0.269-0.513,0.469-0.72c0.2-0.206,0.44-0.369,0.72-0.488c0.28-0.119,0.588-0.178,0.926-0.178
				c0.204,0,0.391,0.017,0.56,0.05c0.169,0.033,0.322,0.079,0.46,0.138c0.138,0.058,0.265,0.129,0.382,0.213
				c0.117,0.084,0.225,0.175,0.325,0.275l-0.613,0.707c-0.171-0.154-0.345-0.275-0.523-0.363c-0.177-0.088-0.376-0.131-0.598-0.131
				c-0.183,0-0.353,0.035-0.51,0.106c-0.156,0.071-0.291,0.169-0.404,0.294c-0.113,0.125-0.2,0.27-0.263,0.435
				c-0.063,0.165-0.094,0.341-0.094,0.529V9.75c0,0.188,0.031,0.365,0.094,0.532c0.063,0.167,0.149,0.313,0.26,0.438
				s0.244,0.224,0.401,0.297c0.156,0.073,0.328,0.109,0.516,0.109c0.25,0,0.462-0.046,0.635-0.138
				c0.173-0.092,0.345-0.217,0.516-0.375l0.613,0.619C50.18,11.353,50.063,11.462,49.942,11.558z"/>
			<path class="st3" d="M54.322,11.94l-0.4-0.982h-1.852l-0.401,0.982h-0.982l1.877-4.411h0.889l1.877,4.411H54.322z M52.995,8.686
				l-0.582,1.42h1.164L52.995,8.686z"/>
			<path class="st3" d="M59.053,11.223c-0.079,0.169-0.189,0.311-0.329,0.426c-0.141,0.115-0.309,0.202-0.504,0.263
				c-0.195,0.06-0.412,0.091-0.65,0.091c-0.334,0-0.661-0.057-0.982-0.172c-0.321-0.115-0.613-0.291-0.876-0.529l0.569-0.682
				c0.2,0.163,0.406,0.292,0.616,0.388c0.211,0.096,0.441,0.144,0.691,0.144c0.2,0,0.356-0.036,0.466-0.109
				c0.111-0.073,0.166-0.174,0.166-0.303v-0.012c0-0.063-0.012-0.118-0.035-0.166c-0.023-0.048-0.067-0.093-0.132-0.135
				c-0.065-0.042-0.155-0.083-0.27-0.125c-0.115-0.042-0.264-0.085-0.448-0.131c-0.222-0.054-0.423-0.115-0.602-0.181
				c-0.18-0.067-0.332-0.149-0.458-0.247c-0.126-0.098-0.223-0.22-0.292-0.366C55.914,9.228,55.88,9.047,55.88,8.83V8.817
				c0-0.2,0.037-0.381,0.112-0.541c0.075-0.161,0.179-0.299,0.314-0.416c0.135-0.117,0.296-0.206,0.482-0.269
				c0.187-0.063,0.393-0.094,0.618-0.094c0.321,0,0.616,0.048,0.885,0.144c0.269,0.096,0.516,0.234,0.741,0.413L58.533,8.78
				c-0.196-0.133-0.388-0.239-0.576-0.316c-0.188-0.077-0.375-0.116-0.563-0.116c-0.188,0-0.328,0.037-0.422,0.109
				c-0.094,0.073-0.141,0.164-0.141,0.272v0.013c0,0.071,0.014,0.132,0.041,0.185c0.027,0.052,0.076,0.099,0.148,0.141
				c0.071,0.042,0.168,0.081,0.292,0.119c0.123,0.038,0.279,0.081,0.467,0.131C58,9.376,58.197,9.442,58.371,9.515
				c0.173,0.073,0.32,0.161,0.439,0.263c0.119,0.102,0.209,0.222,0.27,0.36c0.061,0.138,0.091,0.303,0.091,0.494v0.012
				C59.171,10.861,59.132,11.054,59.053,11.223z"/>
			<path class="st3" d="M63.269,11.94l-0.4-0.982h-1.852l-0.401,0.982h-0.982l1.877-4.411H62.4l1.877,4.411H63.269z M61.943,8.686
				l-0.582,1.42h1.164L61.943,8.686z"/>
		</g>
	</g>
	<g>
		<path class="st1" d="M65.877,34.641l-0.075,3.231c1.589,0.037,2.523-0.291,2.552-1.566C68.384,35.032,67.466,34.678,65.877,34.641
			z"/>
		<path class="st1" d="M34.721,34.093l-0.203,2.704l1.537,0.036l-0.115-1.802C35.901,34.434,35.559,34.112,34.721,34.093z"/>
		<path class="st1" d="M76.425,34.887c-0.908-0.021-1.234,0.461-1.253,1.281l-0.126,5.414c-0.019,0.821,0.284,1.317,1.192,1.338
			c0.908,0.021,1.234-0.461,1.253-1.281l0.126-5.414C77.635,35.404,77.333,34.908,76.425,34.887z"/>
		<path class="st1" d="M51.358,54.283c-0.416-0.036-0.624-0.025-0.625,0.03c-0.063,0.387-0.13,1.71-0.201,3.969
			c-0.004,0.236,0.008,0.479,0.038,0.729c0.03,0.25,0.252,0.421,0.666,0.512c0.331,0.076,0.541-0.406,0.631-1.444
			c0.006-0.333,0.021-0.707,0.042-1.122l0.145-2.14L52.042,54.4C52.002,54.358,51.774,54.319,51.358,54.283z"/>
		<path class="st1" d="M69.093,51.399c-0.208,0.01-0.416,0.013-0.624,0.009c-1.289-0.011-2.813-0.095-4.571-0.254
			c-0.359-0.062-0.739-0.118-1.141-0.168c-0.07,0.013-0.098,0.075-0.087,0.186c-2.912,0.014-6.863-0.027-11.853-0.123l-8.878-0.17
			c-0.122-0.155-0.224-0.233-0.308-0.235l-5.763,0.098c-0.18,0.01-0.322,0.126-0.423,0.345c0.108,0.127,0.273,0.2,0.495,0.218
			c0.18,0.017,0.367,0.028,0.561,0.031l3.867,0.074l1.534,0.238c0.126-0.053,0.182-0.121,0.17-0.205l0.002-0.125
			c0.346,0.021,0.755,0.035,1.226,0.044L49,51.43c-0.14,0.053-0.781,0.242-1.924,0.566c-0.781,0.221-1.423,0.451-1.927,0.691
			c-0.658,0.334-1.465,0.818-2.42,1.451c-1.306,0.877-1.963,1.495-1.97,1.855c-0.002,0.097,0.014,0.153,0.049,0.167
			c0.034,0.015,0.065,0.029,0.093,0.043c2.108-2.164,4.802-3.506,8.085-4.026c-1.317,0.696-2.256,1.239-2.818,1.631
			c-0.942,0.676-1.776,1.492-2.501,2.448c-0.399,0.533-0.592,0.869-0.581,1.008c-0.001,0.042,0.082,0.057,0.249,0.047
			c0.18-0.01,0.292-0.043,0.335-0.098c0.399-0.561,1.08-1.38,2.044-2.457c0.424-0.408,1.112-0.873,2.065-1.396
			c1.107-0.603,1.931-0.892,2.471-0.868c-0.322,0.132-0.616,0.307-0.884,0.524c-0.268,0.217-0.542,0.44-0.824,0.671
			c-0.127,0.095-0.545,0.593-1.256,1.494c-0.754,0.956-1.125,1.504-1.113,1.643c-0.001,0.028,0.012,0.077,0.039,0.146l0.083,0.002
			c0.452-0.421,0.983-1,1.593-1.737c0.497-0.614,0.886-1.016,1.167-1.205c0.436-0.31,0.98-0.481,1.632-0.51
			c1.554-0.053,2.869,0.811,3.944,2.592c0.167-0.01,0.411-0.096,0.733-0.256c0.322-0.16,0.484-0.296,0.486-0.407
			c0.001-0.055-0.093-0.213-0.282-0.473c-0.189-0.26-0.284-0.397-0.283-0.411c0-0.014-0.21-0.274-0.63-0.782
			c1.674,0.92,2.906,1.748,3.696,2.484c0.097-0.012,0.306-0.078,0.628-0.196c0.321-0.119,0.482-0.213,0.484-0.282
			c-0.02-0.402-1.353-1.399-3.999-2.989l0.021-0.02c0.854,0.28,1.619,0.53,2.294,0.751c1.612,0.558,2.644,0.959,3.097,1.203
			c0.18,0.017,0.323-0.007,0.428-0.075c0.105-0.067,0.207-0.128,0.305-0.182c-1.113-0.548-2.232-1.103-3.358-1.666
			c-1.36-0.65-2.475-1.066-3.346-1.25c0.083-0.012,1.442,0.021,4.075,0.099l3.619-0.014c0.065,0.237,0.208,0.344,0.431,0.32
			c0.819-0.067,2.179-0.111,4.079-0.13c1.594-0.011,2.392-0.03,2.393-0.058C69.492,51.559,69.356,51.432,69.093,51.399z"/>
		<polygon class="st3" points="9.549,29.811 9.938,29.784 12.232,29.629 11.944,25.383 11.562,19.762 13.813,19.609 13.66,17.359 
			6.476,17.846 6.629,20.097 8.879,19.944 		"/>
		<path class="st3" d="M14.469,25.428l0.08,1.174c0.14,2.06,1.694,2.928,4.101,2.765c2.406-0.163,3.829-1.233,3.689-3.294
			l-0.031-0.451l-0.404-5.954c-0.14-2.06-1.694-2.928-4.101-2.765c-2.406,0.163-3.829,1.234-3.689,3.294L14.469,25.428z
			 M17.956,19.154c0.9-0.061,1.245,0.403,1.3,1.216l0.352,5.185l0.012,0.181c0.055,0.814-0.224,1.319-1.124,1.38
			c-0.9,0.061-1.245-0.402-1.3-1.216l-0.028-0.406l-0.337-4.961C16.777,19.721,17.056,19.215,17.956,19.154z"/>
		<path class="st3" d="M23.398,28.871l3.029-0.206c2.197-0.149,3.854-1.114,4.699-2.825c0.48-0.971,0.7-2.18,0.602-3.622
			c-0.27-3.981-2.679-5.904-6.124-5.67l-2.337,0.159l0.608,8.954l0.062,0.912l-0.692,0.047L23.398,28.871z M28.959,22.406
			c0.112,1.647-0.306,2.738-0.945,3.357c-0.402,0.39-0.891,0.594-1.393,0.628l-0.045-0.663l-0.472-6.953
			C27.402,18.687,28.776,19.724,28.959,22.406z"/>
		<path class="st3" d="M32.638,25.374c0.012,0.179,0.039,0.345,0.072,0.506c0.348,1.694,1.831,2.408,4.029,2.259
			c1.873-0.127,3.146-0.806,3.554-2.072c0.116-0.36,0.166-0.765,0.135-1.222l-0.435-6.405c-0.14-2.06-1.694-2.928-4.101-2.765
			c-2.406,0.163-3.829,1.234-3.689,3.294L32.638,25.374z M36.045,17.926c0.9-0.061,1.245,0.403,1.3,1.216l0.364,5.366
			c0.055,0.814-0.224,1.319-1.124,1.38c-0.9,0.061-1.245-0.402-1.3-1.216l-0.364-5.366C34.866,18.493,35.145,17.987,36.045,17.926z"
			/>
		<path class="st3" d="M45.492,24.136c0.045,0.658-0.453,1.004-1.423,1.07l-2.302,0.156l0.05,0.742l0.102,1.508l2.908-0.197
			c1.377-0.094,2.317-0.5,2.866-1.166c0.451-0.548,0.638-1.271,0.579-2.146c-0.217-3.202-4.5-3.781-4.624-5.616
			c-0.039-0.571,0.389-0.93,1.099-0.978l2.631-0.179l-0.153-2.25l-3.133,0.213c-2.181,0.148-3.347,1.427-3.22,3.296
			C41.094,21.844,45.389,22.613,45.492,24.136z"/>
		<path class="st3" d="M58.172,26.358c0.409-0.428,0.637-1.017,0.693-1.749c0.223-2.911-3.556-3.992-3.428-5.66
			c0.04-0.519,0.472-0.786,1.117-0.737l2.392,0.183l0.157-2.046l-2.848-0.218c-1.983-0.152-3.199,0.847-3.329,2.546
			c-0.227,2.959,3.539,4.212,3.433,5.597c-0.046,0.598-0.539,0.845-1.421,0.777l-2.093-0.16l-0.102,1.333l-0.055,0.713l2.644,0.203
			C56.665,27.241,57.598,26.959,58.172,26.358z"/>
		<path class="st3" d="M62.967,27.882c1.662,0.127,2.879-0.292,3.432-1.321c0.175-0.326,0.285-0.711,0.32-1.161l0.446-5.822
			c0.144-1.872-1.142-2.858-3.329-3.025c-2.187-0.168-3.608,0.61-3.752,2.482l-0.446,5.822c-0.047,0.608,0.06,1.121,0.296,1.544
			C60.426,27.282,61.49,27.769,62.967,27.882z M62.113,24.572l0.374-4.878c0.057-0.74,0.374-1.159,1.192-1.096
			c0.818,0.063,1.068,0.525,1.011,1.265l-0.374,4.878c-0.057,0.74-0.374,1.158-1.192,1.095
			C62.306,25.774,62.056,25.312,62.113,24.572z"/>
		<path class="st3" d="M67.779,28.093l2.439,0.187l0.124-1.621l0.563-7.347l0.425,0.033c1.29,0.099,1.58,0.659,1.51,1.571
			l-0.444,5.794l-0.132,1.727l2.439,0.187l0.142-1.854l0.545-7.115l0.456,0.035c1.18,0.09,1.554,0.578,1.479,1.569l-0.426,5.562
			l-0.15,1.96l2.439,0.187l0.16-2.086l0.49-6.395c0.1-1.306-0.482-2.585-2.922-2.772l-8.922-0.684l-0.157,2.046l0.629,0.048
			l-0.573,7.474L67.779,28.093z"/>
		<path class="st3" d="M83.503,29.456c2.146,0.164,3.551-0.583,3.739-2.38c0.004-0.035,0.01-0.067,0.013-0.103l0.446-5.822
			c0.144-1.872-1.142-2.857-3.329-3.025c-2.187-0.168-3.608,0.61-3.752,2.482l-0.446,5.822c-0.013,0.164-0.01,0.32-0.001,0.47
			C80.266,28.468,81.507,29.304,83.503,29.456z M82.648,26.147l0.374-4.878c0.057-0.74,0.374-1.159,1.192-1.096
			c0.818,0.063,1.068,0.525,1.011,1.265l-0.374,4.878c-0.022,0.283-0.082,0.517-0.193,0.697c-0.18,0.291-0.493,0.437-0.999,0.398
			c-0.447-0.034-0.72-0.191-0.87-0.444C82.664,26.757,82.623,26.482,82.648,26.147z"/>
		<path class="st3" d="M93.323,29.483c0.751-0.426,1.149-1.174,1.226-2.189c0.227-2.965-3.622-4.067-3.492-5.766
			c0.041-0.529,0.481-0.801,1.138-0.751l2.436,0.187l0.16-2.084l-2.901-0.222c-2.02-0.155-3.259,0.863-3.391,2.594
			c-0.231,3.014,3.605,4.291,3.497,5.702c-0.005,0.071-0.018,0.135-0.036,0.196c-0.134,0.466-0.617,0.656-1.411,0.596l-2.132-0.163
			l-0.16,2.084l2.693,0.206C91.96,29.949,92.746,29.811,93.323,29.483z"/>
		<path class="st1" d="M5.088,37.541H4.002c-0.059,0-0.144-0.015-0.255-0.044c0.162-0.118,0.322-0.24,0.477-0.366
			c0.259-0.2,0.388-0.344,0.388-0.432c0-0.162-0.103-0.299-0.31-0.41c-0.133-0.074-0.215-0.111-0.244-0.111
			c-0.118,0-0.41,0.188-0.876,0.565l-0.056-0.055c0-0.052-0.009-0.187-0.028-0.405C3.08,36.065,3.07,35.948,3.07,35.933
			c0-0.266-0.089-0.399-0.266-0.399c-0.377,0-0.565,0.155-0.565,0.466c0,0.03,0.015,0.177,0.044,0.444
			c0.03,0.266,0.044,0.41,0.044,0.432c0,0.059-0.022,0.103-0.066,0.133c-0.392-0.369-0.684-0.65-0.876-0.842
			c-0.111-0.089-0.207-0.133-0.288-0.133c-0.074,0-0.148,0.068-0.222,0.204c-0.074,0.136-0.111,0.244-0.111,0.325
			c0,0.162,0.126,0.341,0.377,0.539c0.34,0.264,0.521,0.411,0.543,0.44H0.432c-0.089,0-0.181,0.033-0.277,0.1
			C0.059,37.707,0.007,37.777,0,37.851v0.288c0,0.118,0.078,0.196,0.233,0.233c0.044,0.007,0.159,0.015,0.344,0.022
			c0.48,0.007,0.78,0.007,0.898,0c-0.044,0.095-0.166,0.242-0.366,0.44c-0.148,0.147-0.222,0.286-0.222,0.418
			c0,0.088,0.033,0.194,0.1,0.319c0.089,0.161,0.192,0.242,0.31,0.242c0.126,0,0.325-0.129,0.599-0.388
			c0.17-0.162,0.34-0.329,0.51-0.499l0.044,0.055c0.029,0.244,0.048,0.447,0.055,0.61c0.022,0.229,0.044,0.458,0.067,0.687
			c0.03,0.14,0.177,0.211,0.443,0.211c0.288,0,0.425-0.081,0.41-0.244l-0.089-1.02C3.329,39.166,3.34,39.115,3.37,39.07l0.044-0.022
			c0.768,0.665,1.226,0.998,1.374,0.998c0.067,0,0.151-0.06,0.255-0.182c0.103-0.121,0.155-0.222,0.155-0.303
			c0-0.066-0.188-0.264-0.565-0.595c-0.236-0.198-0.473-0.396-0.709-0.594c0.214-0.007,0.403-0.011,0.565-0.011h0.421
			c0.229,0,0.369-0.011,0.421-0.033c0.089-0.044,0.133-0.096,0.133-0.155c0-0.125-0.03-0.255-0.089-0.388
			C5.302,37.622,5.206,37.541,5.088,37.541z"/>
		<path class="st1" d="M99.911,39.6c-0.074-0.162-0.17-0.244-0.288-0.244h-1.086c-0.059,0-0.144-0.015-0.255-0.044
			c0.162-0.118,0.322-0.24,0.477-0.366c0.259-0.2,0.388-0.344,0.388-0.432c0-0.162-0.103-0.299-0.31-0.41
			c-0.133-0.074-0.215-0.111-0.244-0.111c-0.118,0-0.41,0.188-0.876,0.565l-0.056-0.055c0-0.052-0.009-0.187-0.028-0.405
			c-0.019-0.218-0.028-0.334-0.028-0.349c0-0.266-0.089-0.399-0.266-0.399c-0.377,0-0.565,0.155-0.565,0.466
			c0,0.03,0.015,0.177,0.044,0.444c0.03,0.266,0.044,0.41,0.044,0.432c0,0.059-0.022,0.103-0.066,0.133
			c-0.392-0.369-0.684-0.65-0.876-0.842c-0.111-0.089-0.207-0.133-0.288-0.133c-0.074,0-0.148,0.068-0.222,0.204
			c-0.074,0.136-0.111,0.244-0.111,0.325c0,0.162,0.126,0.341,0.377,0.539c0.34,0.264,0.521,0.411,0.543,0.44h-1.253
			c-0.089,0-0.181,0.033-0.277,0.1c-0.096,0.067-0.148,0.137-0.155,0.211v0.288c0,0.118,0.078,0.196,0.233,0.233
			c0.044,0.007,0.159,0.015,0.344,0.022c0.48,0.007,0.78,0.007,0.898,0c-0.044,0.095-0.166,0.242-0.366,0.44
			c-0.148,0.147-0.222,0.286-0.222,0.418c0,0.088,0.033,0.194,0.1,0.319c0.089,0.161,0.192,0.242,0.31,0.242
			c0.126,0,0.325-0.129,0.599-0.388c0.17-0.162,0.34-0.329,0.51-0.499l0.044,0.055c0.029,0.244,0.048,0.447,0.055,0.61
			c0.022,0.229,0.044,0.458,0.067,0.687c0.03,0.14,0.177,0.211,0.443,0.211c0.288,0,0.425-0.081,0.41-0.244l-0.089-1.02
			c-0.007-0.059,0.004-0.111,0.033-0.155l0.044-0.022c0.768,0.665,1.226,0.998,1.374,0.998c0.067,0,0.151-0.06,0.255-0.182
			c0.103-0.121,0.155-0.222,0.155-0.303c0-0.066-0.188-0.264-0.565-0.595c-0.236-0.198-0.473-0.396-0.709-0.594
			c0.214-0.007,0.403-0.011,0.565-0.011h0.421c0.229,0,0.369-0.011,0.421-0.033c0.089-0.044,0.133-0.096,0.133-0.155
			C100,39.862,99.97,39.733,99.911,39.6z"/>
		<path class="st1" d="M93.514,30.881c-0.004-0.072-0.008-0.144-0.013-0.22c0-0.008-0.001-0.016-0.001-0.025
			c-0.578,0.248-1.254,0.379-2.031,0.379c-0.196,0-0.397-0.008-0.605-0.024l-3.812-0.293l0.082-1.065
			c-0.746,0.627-1.798,0.966-3.096,0.966c-0.201,0-0.408-0.008-0.621-0.025c-1.507-0.115-2.491-0.56-3.141-1.114l-0.055,0.711
			l-4.484-0.345v0l-4.485-0.344l0,0l-4.677-0.358l0.085-1.109c-0.63,0.563-1.606,1.01-3.123,1.01c-0.208,0-0.425-0.008-0.654-0.026
			c-2.281-0.175-3.351-1.117-3.852-1.926c-0.017,0.018-0.028,0.04-0.045,0.058c-0.728,0.764-1.782,1.149-3.138,1.149
			c-0.194,0-0.394-0.008-0.6-0.024l-3.762-0.289l0.086-1.122l-0.306-0.023l0.057-0.742c-0.737-0.018-1.471-0.036-2.207-0.055
			c-0.137,0.34-0.321,0.653-0.553,0.935c-0.767,0.931-1.997,1.46-3.657,1.572l-4.028,0.273l-0.089-1.314
			c-0.623,0.807-1.788,1.615-3.973,1.764c-0.218,0.015-0.428,0.022-0.628,0.022c-2.657,0-3.789-1.242-4.274-2.276
			c-0.037-0.037-0.073-0.075-0.108-0.114c0,0,0,0,0,0c-1.082,1.706-2.932,2.734-5.301,2.895l-4.15,0.282l-0.061-0.894
			c-0.813,0.749-2.023,1.209-3.567,1.314h0c-0.206,0.014-0.407,0.021-0.603,0.021c-1.722,0-3.042-0.536-3.84-1.516
			c-0.191-0.063-0.371-0.137-0.537-0.225c-0.008-0.004-0.016-0.009-0.024-0.013c-0.163-0.088-0.315-0.185-0.453-0.298l0.16,2.217
			l-4.923,0.334l-0.097-1.422l-0.932,0.063c0.037,0.436,0.064,0.775,0.082,1.016c0.009,0.12,0.016,0.216,0.02,0.287
			c0.004,0.071,0.006,0.117,0.006,0.138c-0.001,0.03,0.575,13.38,0.613,13.901c0.037,0.521,0.075,1.042,0.112,1.563
			c0.053,0.29,0.225,0.515,0.502,0.679c0.33,0.196,0.813,0.306,1.459,0.324c0.009,0,0.017,0.001,0.026,0.002
			c0.056,0.001,0.351,0.009,0.858,0.021c0.141,0.004,0.298,0.007,0.471,0.012c0.448,0.011,80.728,1.997,81.019,2.004
			c1.308,0.032,1.937-0.321,1.889-1.061C94.533,48.534,93.167,31.055,93.514,30.881z M30.256,34.531l-0.219,9.413L27.33,43.88
			l0.194-8.347c0.026-1.1-0.417-1.617-1.727-1.647l-0.506-0.012l-0.231,9.954l-2.707-0.063l0.194-8.347
			c0.024-1.013-0.329-1.615-1.761-1.648l-0.472-0.011l-0.231,9.954l-2.707-0.063l0.231-9.954l-0.698-0.016l0.053-2.27l9.902,0.23
			C29.57,31.702,30.289,33.081,30.256,34.531z M36.585,44.095l-0.356-4.988l-1.886-0.044l-0.378,4.971l-2.794-0.065l1.017-9.936
			l-0.611-0.014l0.053-2.27l3.3,0.077c2.427,0.056,3.483,1.252,3.649,3.107l0.886,9.229L36.585,44.095z M51.131,44.433l-2.478-0.058
			l-0.456-0.011l-4.383-0.102c-2.2-0.051-3.364-1.109-3.324-2.82l0.052-2.235l-0.698-0.016l0.053-2.27l0.698,0.016l0.116-4.977
			l6.636,0.154l-0.053,2.27l-3.929-0.091L43.301,37l3.178,0.074l-0.053,2.27l-3.178-0.074l-0.026,1.135
			c-0.025,1.065,0.435,1.583,1.727,1.613l3.3,0.077l0.456,0.011l1.867,0.043c0.978,0.023,1.509-0.28,1.524-0.943
			c0.036-1.537-4.201-2.701-4.124-5.984c0.044-1.886,1.329-3.062,3.53-3.011l3.161,0.073l-0.053,2.27l-2.654-0.062
			c-0.716-0.017-1.178,0.304-1.191,0.881c-0.043,1.851,4.198,2.823,4.123,6.054C54.842,43.384,53.663,44.492,51.131,44.433z
			 M60.372,34.688l-0.231,9.954l-2.707-0.063l0.231-9.954l-2.27-0.053l0.053-2.27l7.247,0.168l-0.053,2.27L60.372,34.688z
			 M69.277,39.456l1.429,5.432l-2.881-0.067l-0.957-4.705c0,0-0.42,0.043-1.119,0.026l-0.107,4.628l-2.707-0.063l0.107-4.628
			l-0.698-0.016l0.053-2.27l0.698,0.016l0.124-5.326l2.707,0.063c2.986,0.069,5.288,1.031,5.223,3.825
			C71.094,38.729,69.277,39.456,69.277,39.456z M80.335,35.764l-0.15,6.461c-0.048,2.078-1.573,3.021-4,2.965
			c-2.428-0.056-3.907-1.069-3.858-3.147l0.15-6.461c0.048-2.078,1.573-3.021,4-2.965C78.905,32.673,80.384,33.686,80.335,35.764z
			 M84.711,45.213l-2.934-0.068l0.053-2.27l2.323,0.054c0.978,0.023,1.509-0.28,1.524-0.943c0.036-1.537-4.201-2.701-4.124-5.984
			c0.044-1.886,1.329-3.062,3.53-3.011l3.161,0.073l-0.053,2.27l-2.654-0.062c-0.716-0.017-1.178,0.305-1.191,0.881
			c-0.043,1.851,4.198,2.823,4.123,6.054C88.422,44.164,87.243,45.272,84.711,45.213z"/>
	</g>
</g>
</svg>
